<svg xmlns="http://www.w3.org/2000/svg" width="1200" height="900" viewBox="0 0 1200 900" role="img" aria-labelledby="title desc">
  <title id="title">ELITE WORLD demo equipment</title>
  <desc id="desc">Professional placeholder for demo restaurant equipment</desc>
  <defs>
    <linearGradient id="bg" x1="0" y1="0" x2="1" y2="1">
      <stop offset="0" stop-color="#effbfc"/>
      <stop offset="1" stop-color="#d8eef2"/>
    </linearGradient>
    <linearGradient id="steel" x1="0" y1="0" x2="1" y2="0">
      <stop offset="0" stop-color="#d8e1e5"/>
      <stop offset="0.5" stop-color="#ffffff"/>
      <stop offset="1" stop-color="#aebdc4"/>
    </linearGradient>
  </defs>
  <rect width="1200" height="900" fill="url(#bg)"/>
  <circle cx="1030" cy="145" r="190" fill="#08a4c1" opacity=".08"/>
  <circle cx="155" cy="760" r="240" fill="#00677f" opacity=".07"/>
  <g transform="translate(315 150)">
    <rect x="0" y="0" width="570" height="560" rx="36" fill="url(#steel)" stroke="#00677f" stroke-width="10"/>
    <rect x="55" y="80" width="460" height="315" rx="22" fill="#0f3038"/>
    <rect x="85" y="110" width="400" height="255" rx="14" fill="#d9f5f8" opacity=".92"/>
    <path d="M125 170h320M125 235h320M125 300h320" stroke="#7ea8b1" stroke-width="12" stroke-linecap="round"/>
    <circle cx="100" cy="465" r="24" fill="#08a4c1"/>
    <circle cx="180" cy="465" r="24" fill="#00677f"/>
    <rect x="245" y="440" width="245" height="50" rx="14" fill="#ffffff" stroke="#8ba8af" stroke-width="5"/>
    <path d="M80 560v55M490 560v55" stroke="#0f3038" stroke-width="18" stroke-linecap="round"/>
  </g>
  <text x="600" y="815" text-anchor="middle" fill="#00677f" font-family="Arial, sans-serif" font-size="44" font-weight="700" letter-spacing="5">ELITE WORLD</text>
  <text x="600" y="855" text-anchor="middle" fill="#45636c" font-family="Arial, sans-serif" font-size="23">PROFESSIONAL EQUIPMENT · DEMO</text>
</svg>
